<svg xmlns="http://www.w3.org/2000/svg" xmlns:xlink="http://www.w3.org/1999/xlink" fill="none" version="1.1" width="779" height="425" viewBox="0 0 779 425"><g><path d="M234.087,424.532C104.312,424.532,0,329.549,0,212.266C0,94.9827,104.312,0,234.087,0C300.617,0,343.327,28.0818,377.003,37.9931C459.96,60.2934,431.213,197.399,358.933,197.399C299.796,197.399,319.508,123.065,285.832,80.9418C251.335,36.3412,188.912,30.5597,153.594,57.8156C76.3863,117.283,205.339,360.935,313.759,360.935C307.188,338.634,290.761,304.771,290.761,277.515C290.761,241.174,312.937,224.655,365.504,224.655C418.071,224.655,444.355,241.174,444.355,277.515C444.355,322.941,418.892,341.112,418.892,397.276C418.892,452.614,366.326,408.013,334.293,408.013C302.26,408.013,299.796,424.532,234.087,424.532ZM661.378,393.457C661.378,410.878,647.334,425,630.011,425C612.687,425,598.643,410.878,598.643,393.457C598.643,376.037,612.687,361.915,630.011,361.915C647.334,361.915,661.378,376.037,661.378,393.457ZM627.87,337.177C537.521,337.177,464.42,276.057,464.42,199.245C464.42,123.259,537.521,61.3138,627.87,61.3138C711.649,61.3138,779,115,779,163.73C779,226.501,673.866,212.46,654.154,253.757C687.008,266.146,721.505,262.842,733.004,242.194C743.682,224.023,790.499,232.283,774.072,261.191C747.788,306.617,691.936,337.177,627.87,337.177ZM659.082,119.129C659.082,88.5697,585.981,91.0475,585.981,158.774C585.981,191.812,600.765,217.416,621.299,233.935C625.406,195.116,659.082,145.559,659.082,119.129Z" fill="#000000" fill-opacity="1"/></g></svg>