<svg width="2313" height="398" viewBox="0 0 2313 398" fill="none" xmlns="http://www.w3.org/2000/svg">
<path d="M0 55.3432C0 24.778 24.7819 0 55.3518 0H386.678C417.248 0 442.03 24.778 442.03 55.3432C442.03 85.9084 417.248 110.686 386.678 110.686H55.3518C24.7819 110.686 0 85.9084 0 55.3432Z" fill="white"/>
<path d="M0 199C0 168.435 24.7819 143.657 55.3518 143.657H236.717C267.287 143.657 292.069 168.435 292.069 199C292.069 229.565 267.287 254.343 236.717 254.343H55.3518C24.7819 254.343 0 229.565 0 199Z" fill="white"/>
<path d="M0 342.657C0 312.092 24.7819 287.314 55.3518 287.314C85.9218 287.314 110.704 312.092 110.704 342.657C110.704 373.222 85.9218 398 55.3518 398C24.7819 398 0 373.222 0 342.657Z" fill="white"/>
<path fill-rule="evenodd" clip-rule="evenodd" d="M1794.81 62.925V335.862H1869.4V235.575L1938.88 335.862H2031.14L1955.76 234.395C1955.76 234.395 2013.86 218.664 2013.86 152.593C2013.86 86.5218 1960.87 62.925 1916.51 62.925H1794.81ZM1870.97 189.561V128.996H1904.73C1904.73 128.996 1934.57 127.03 1936.92 157.312C1939.28 187.595 1904.73 189.561 1904.73 189.561H1870.97Z" fill="white"/>
<path fill-rule="evenodd" clip-rule="evenodd" d="M1555.35 62.925V335.862H1629.93V255.633H1674.69C1674.69 255.633 1772.04 254.846 1772.04 158.885C1772.04 62.925 1674.69 62.925 1674.69 62.925H1555.35ZM1629.93 128.996V189.561H1663.7C1663.7 189.561 1698.24 187.595 1695.89 157.312C1693.53 127.03 1663.7 128.996 1663.7 128.996H1629.93Z" fill="white"/>
<path d="M654.015 335.862V62.9249H811.827V101.466H694.842V177.763H803.19V216.304H694.842V335.862H654.015Z" fill="white"/>
<path d="M841.662 335.863H884.059V62.9264H841.662V335.863Z" fill="white"/>
<path d="M1080.34 335.863H921.745V62.9264H1077.99V101.468H963.357V165.179H1069.35V204.507H963.357V296.535H1080.34V335.863Z" fill="white"/>
<path d="M1116.46 62.9264V335.863H1275.06V295.749H1157.29V62.9264H1116.46Z" fill="white"/>
<path fill-rule="evenodd" clip-rule="evenodd" d="M1304.1 335.863V62.9264H1403.82C1403.82 62.9264 1529.05 62.9263 1528.65 200.575C1528.26 335.863 1403.82 335.863 1403.82 335.863H1304.1ZM1343.36 297.321V101.467H1402.1C1404.54 101.467 1406.97 101.57 1409.38 102.006C1424.74 104.79 1483.9 120.676 1483.9 200.241C1483.9 281.351 1422.42 294.952 1408.53 296.989C1406.67 297.263 1404.83 297.321 1402.94 297.321H1343.36Z" fill="white"/>
<path fill-rule="evenodd" clip-rule="evenodd" d="M2176.78 335.862C2252.01 335.862 2313 274.763 2313 199.393C2313 124.024 2252.01 62.9249 2176.78 62.9249C2101.55 62.9249 2040.56 124.024 2040.56 199.393C2040.56 274.763 2101.55 335.862 2176.78 335.862ZM2176.78 268.217C2214.72 268.217 2245.48 237.404 2245.48 199.393C2245.48 161.383 2214.72 130.569 2176.78 130.569C2138.84 130.569 2108.08 161.383 2108.08 199.393C2108.08 237.404 2138.84 268.217 2176.78 268.217Z" fill="white"/>
</svg>
